<mxfile host="app.diagrams.net" agent="Mozilla/5.0 (Windows NT 10.0; Win64; x64) AppleWebKit/537.36 (KHTML, like Gecko) Chrome/132.0.0.0 Safari/537.36" version="26.0.14">
  <diagram name="Trang-1" id="EVr8f2yy7lBl-q2Wdn64">
    <mxGraphModel dx="1050" dy="569" grid="1" gridSize="10" guides="1" tooltips="1" connect="1" arrows="1" fold="1" page="1" pageScale="1" pageWidth="827" pageHeight="1169" math="0" shadow="0">
      <root>
        <mxCell id="0" />
        <mxCell id="1" parent="0" />
        <mxCell id="-w3nPNhzxHXCMxLlRhls-3" value="Data scraping" style="rounded=1;whiteSpace=wrap;html=1;" vertex="1" parent="1">
          <mxGeometry x="160" y="200" width="120" height="60" as="geometry" />
        </mxCell>
        <mxCell id="-w3nPNhzxHXCMxLlRhls-4" value="&lt;i&gt;cafef, dantri, vietstock, kinhtedothi, nhadautu, vietnambiz, vietnamnet, vneconomy, vnexpress&lt;/i&gt;&lt;div&gt;Store in database&lt;/div&gt;" style="text;html=1;align=left;verticalAlign=middle;whiteSpace=wrap;rounded=0;" vertex="1" parent="1">
          <mxGeometry x="160" y="261" width="130" height="70" as="geometry" />
        </mxCell>
        <mxCell id="-w3nPNhzxHXCMxLlRhls-5" value="Economic News Recognition" style="rounded=1;whiteSpace=wrap;html=1;" vertex="1" parent="1">
          <mxGeometry x="350" y="201" width="120" height="60" as="geometry" />
        </mxCell>
        <mxCell id="-w3nPNhzxHXCMxLlRhls-6" value="" style="endArrow=classic;html=1;rounded=0;exitX=1;exitY=0.5;exitDx=0;exitDy=0;entryX=0;entryY=0.5;entryDx=0;entryDy=0;" edge="1" parent="1" source="-w3nPNhzxHXCMxLlRhls-3" target="-w3nPNhzxHXCMxLlRhls-5">
          <mxGeometry width="50" height="50" relative="1" as="geometry">
            <mxPoint x="460" y="330" as="sourcePoint" />
            <mxPoint x="510" y="280" as="targetPoint" />
          </mxGeometry>
        </mxCell>
        <mxCell id="-w3nPNhzxHXCMxLlRhls-7" value="SVM-based classification" style="text;html=1;align=left;verticalAlign=middle;whiteSpace=wrap;rounded=0;" vertex="1" parent="1">
          <mxGeometry x="350" y="261" width="146" height="30" as="geometry" />
        </mxCell>
        <mxCell id="-w3nPNhzxHXCMxLlRhls-8" value="Extracting business indicator" style="rounded=1;whiteSpace=wrap;html=1;" vertex="1" parent="1">
          <mxGeometry x="540" y="201" width="120" height="60" as="geometry" />
        </mxCell>
        <mxCell id="-w3nPNhzxHXCMxLlRhls-9" value="" style="endArrow=classic;html=1;rounded=0;exitX=1;exitY=0.5;exitDx=0;exitDy=0;entryX=0;entryY=0.5;entryDx=0;entryDy=0;" edge="1" parent="1" source="-w3nPNhzxHXCMxLlRhls-5" target="-w3nPNhzxHXCMxLlRhls-8">
          <mxGeometry width="50" height="50" relative="1" as="geometry">
            <mxPoint x="460" y="330" as="sourcePoint" />
            <mxPoint x="510" y="280" as="targetPoint" />
          </mxGeometry>
        </mxCell>
        <mxCell id="-w3nPNhzxHXCMxLlRhls-10" value="Sentiment analysis" style="rounded=1;whiteSpace=wrap;html=1;" vertex="1" parent="1">
          <mxGeometry x="540" y="331" width="120" height="60" as="geometry" />
        </mxCell>
        <mxCell id="-w3nPNhzxHXCMxLlRhls-11" value="" style="endArrow=classic;html=1;rounded=0;exitX=0.5;exitY=1;exitDx=0;exitDy=0;entryX=0.5;entryY=0;entryDx=0;entryDy=0;" edge="1" parent="1" source="-w3nPNhzxHXCMxLlRhls-8" target="-w3nPNhzxHXCMxLlRhls-10">
          <mxGeometry width="50" height="50" relative="1" as="geometry">
            <mxPoint x="460" y="330" as="sourcePoint" />
            <mxPoint x="510" y="280" as="targetPoint" />
          </mxGeometry>
        </mxCell>
      </root>
    </mxGraphModel>
  </diagram>
</mxfile>
